<svg viewBox="0 0 269.61 151.38" xmlns="http://www.w3.org/2000/svg" data-name="Camada 2" id="Camada_2">
  <g data-name="Camada 1" id="Camada_1-2">
    <path d="M134.8,0c-22.39,0-40.55,18.15-40.55,40.55s18.15,40.55,40.55,40.55,40.55-18.15,40.55-40.55S157.2,0,134.8,0ZM134.8,31.66l-6.99,13.92-3.91,7.82-4.03,7.94h-8.77l23.7-47.4,15.82,31.64h-8.89l-6.93-13.92ZM149.67,61.34l-3.91-7.88h8.77l3.97,7.88h-8.83Z"></path>
    <g>
      <path d="M18.36,102.6h8.91l18.42,47.84h-8.98l-4.49-12.66H13.13l-4.49,12.66H0l18.36-47.84ZM15.41,131.41h14.61l-7.17-20.57h-.2l-7.24,20.57Z"></path>
      <path d="M47.7,102.6h7.64v47.84h-7.64v-47.84Z"></path>
      <path d="M62.17,102.6h7.64v47.84h-7.64v-47.84Z"></path>
      <path d="M94.47,102.6h19.83c14.74,0,21.11,10.72,21.11,23.92s-6.37,23.92-21.11,23.92h-19.83v-47.84ZM102.84,143.6h8.24c13.13,0,15.95-7.5,15.95-17.09s-2.81-17.08-15.95-17.08h-8.24v34.17Z"></path>
      <path d="M146.06,135.09c0,5.43,2.95,10.25,9.31,10.25,4.42,0,7.1-1.94,8.44-5.76h7.24c-1.67,7.57-8.11,11.79-15.68,11.79-10.85,0-16.95-7.57-16.95-18.22,0-9.85,6.43-18.29,16.75-18.29,10.92,0,17.62,9.85,16.35,20.23h-25.46ZM163.88,130.07c-.27-4.82-3.55-9.18-8.71-9.18s-8.91,4.02-9.11,9.18h17.82Z"></path>
      <path d="M199.05,127.39c-.6-4.22-3.68-6.5-7.91-6.5-3.95,0-9.51,2.08-9.51,12.6,0,5.76,2.55,11.86,9.18,11.86,4.42,0,7.5-2.95,8.24-7.91h7.64c-1.41,8.98-6.97,13.94-15.88,13.94-10.85,0-16.82-7.71-16.82-17.89s5.7-18.63,17.09-18.63c8.04,0,14.87,4.02,15.61,12.53h-7.64Z"></path>
      <path d="M209.64,133.08c0-10.59,6.37-18.22,17.49-18.22s17.49,7.64,17.49,18.22-6.37,18.29-17.49,18.29-17.49-7.64-17.49-18.29ZM236.98,133.08c0-5.96-3.02-12.19-9.85-12.19s-9.85,6.23-9.85,12.19,3.02,12.26,9.85,12.26,9.85-6.23,9.85-12.26Z"></path>
      <path d="M249.3,115.8h7.17v6.7h.13c.87-3.69,5.43-7.64,10.12-7.64,1.74,0,2.21.13,2.88.2v7.37c-1.07-.13-2.21-.33-3.28-.33-5.23,0-9.38,4.22-9.38,11.86v16.48h-7.64v-34.64Z"></path>
    </g>
  </g>
</svg>