<?xml version="1.0" encoding="UTF-8"?>
<!DOCTYPE svg PUBLIC "-//W3C//DTD SVG 1.1//EN" "http://www.w3.org/Graphics/SVG/1.1/DTD/svg11.dtd">
<!-- Creator: CorelDRAW 2021 (64 Bit) -->
<svg xmlns="http://www.w3.org/2000/svg" xml:space="preserve" width="160.925mm" height="69.6132mm" version="1.1" style="shape-rendering:geometricPrecision; text-rendering:geometricPrecision; image-rendering:optimizeQuality; fill-rule:evenodd; clip-rule:evenodd"
viewBox="0 0 21477.21 9290.64"
 xmlns:xlink="http://www.w3.org/1999/xlink"
 xmlns:xodm="http://www.corel.com/coreldraw/odm/2003">
 <defs>
  <style type="text/css">
   <![CDATA[
    .fil0 {fill:#424A52;fill-rule:nonzero}
   ]]>
  </style>
 </defs>
 <g id="Camada_x0020_1">
  <metadata id="CorelCorpID_0Corel-Layer"/>
  <g id="_2755690279328">
   <g>
    <g>
     <g>
      <path class="fil0" d="M19118.33 7234.2c-95.09,-66.66 -210.77,-96.28 -315.97,-91.63 -106.21,4.14 -153.67,83.36 -153.67,83.36 -47.99,-83.36 -142.8,-134.81 -289.29,-133.51 -236.43,2.71 -471.18,112.04 -656.85,112.04 -178.49,0 -308.51,-112.04 -304.1,-310.99 7.63,-348.93 302.18,-663.43 522.41,-804.81 126.63,-81.29 232.66,-105.66 302.18,-97.89 50.57,5.75 111.45,64.05 73.19,150.21 -56.36,126.25 -134.44,115.63 -131.67,55.27 1.92,-39.04 27.85,-63.73 47.35,-77.01 12.88,-8.59 34.39,-11.26 46.07,-11.36 11.04,-9.38 19.59,-78.64 -71.17,-55.83 -90.77,22.72 -199.83,112.05 -303.92,226.54 -104.37,115.27 -266.31,332.93 -306.21,561.54 -18.76,105.89 -6.26,298.95 244.87,296.75 212.6,-1.65 526.82,-141.98 815.11,-139.87 112.09,1.2 209.48,31.36 285.53,78.34 74.67,46.44 164.33,113.35 196.15,158.86zm67.68 -632.24l0 0 43.95 0c0,0 -218.68,316.14 -342.17,301.7 -68.79,-8.09 -48.46,-93.33 -48.46,-93.33 0,0 -97.01,113.62 -185.66,90.9 -80.65,-20.83 -28.79,-154.91 -28.79,-154.91 -9.1,3.68 -183.64,200.83 -306.31,153.44 -128.28,-49.34 -61.81,-214.18 -37.16,-263.79 20.23,-41.84 43.31,-82.57 43.31,-82.57 0,0 -19.77,6.02 -31.91,8.69 -12.41,2.71 -30.99,6.3 -30.99,6.3 0,0 -60.68,98.76 -97.47,147.86 -37.16,49.15 -194.87,218.68 -287.74,184.98 -93.06,-33.47 -70.07,-163.78 -17.83,-266.81 84.6,-167.73 285.34,-373.53 406.44,-342.73 122.12,31.04 21.06,229.49 21.06,229.49 0,0 24.37,3.18 82.49,-36.61 83.95,-57.84 194.67,-211.4 314.49,-193.42 56.19,8.46 108.78,66.34 37.16,176.1 -23.09,35.13 -61.62,66.62 -91.03,35.54 -18.4,-19.18 -2.67,-54.72 16.72,-78.77 27.23,-34.21 65.02,-29.65 65.02,-29.65 0,0 19.58,-45.38 -30.71,-44.64 -40.65,1.05 -144.1,95.81 -202.22,192.18 -53.52,88.1 -134.26,238.49 -52.97,271.01 74.67,30.03 216.38,-138.72 281.95,-226.58 65.93,-88.06 215.09,-288.2 340.79,-296.34 43.12,-3.04 68.87,36.31 68.87,36.31l14.53 -22.7 125.43 0c0,0 -236.15,394.63 -254.9,424.47 -14.63,23.4 -33.94,76.05 19.49,46.62 53.61,-29.88 164.61,-172.74 164.61,-172.74zm-972.82 -40.1l0 0c-2.11,-0.91 -33.74,-9.69 -64.45,-29.74 -30.82,-19.59 -45.26,-48.93 -46.35,-51.09 -0.92,-2.07 -2.3,-0.41 -3.59,1.65 -1.2,1.56 -7.73,9.74 -52.41,75.78 -44.79,65.38 -111.09,200.1 -48.83,223.17 39.81,14.57 106.49,-55.03 142.35,-101.7 33.83,-42.81 73.66,-108.61 75.31,-112.2 1.84,-4.08 0.19,-5.14 -2.03,-5.89zm49.66 -209.71l0 0c-33.02,-24.92 -116.6,33.21 -117.06,92.65 -0.47,60.83 75.5,78.26 85.52,78.81 0,0 8.55,2.07 11.86,-4.91 2.3,-4.83 12.51,-23.69 24.09,-53.89 11.58,-30.35 26.12,-89.61 -4.42,-112.65zm639.1 328.62l0 0c50.85,-69.67 190.26,-312.79 190.26,-312.79 0,0 -2.48,-17.2 -18.58,-17.94 -19.31,-0.73 -51.41,5.57 -115.68,85.66 -64.18,80.37 -113.47,144.51 -149.8,210.53 -39.64,72.56 -56.92,123.69 -34.3,137.44 6.34,4.04 16.1,4.87 23.73,2.76 14.99,-3.72 34.66,-18.8 61.06,-49.38 12.68,-14.44 26.76,-33.66 43.31,-56.28zm563.61 -376.84l0 0 -119.09 0 -67.12 108.88 118.98 0 67.22 -108.88zm1758.12 -195.96l0 0c-87.91,57.09 -210.03,108.28 -327.09,96.96 -29.7,30.58 -61.51,65.8 -93.24,105.02 203.13,39.77 380.98,-85.84 475.6,-193.42 59.22,-66.54 88.36,-126.68 88.36,-126.68 0,0 -56.37,62.21 -143.64,118.13zm-348.6 923.84l0 0c-16.83,27.21 -35.77,78.49 19.86,46.58 67.77,-39.36 164.61,-185.84 164.61,-185.84l43.31 0c0,0 -57.39,91.17 -132.61,174.3 -68.79,76.01 -152.47,145.06 -211.59,138.59 -68.88,-8.01 -47.37,-98.59 -47.37,-98.59 0,0 -98.93,104.93 -166.99,97.61 -92.23,-10.34 -64.27,-124.32 -64.27,-124.32 0,0 -104.01,128.46 -174.99,124.32 -111.55,-6.57 -83.6,-142.39 -52.69,-237.29 16.55,-51.26 32.08,-91.35 32.08,-91.35 0,0 -11.3,2.75 -34.85,6.47 -12.32,1.71 -34.86,2.63 -34.86,2.63 0,0 -46.71,82.25 -83.68,131.31 -37.14,49.38 -194.67,218.96 -287.73,185.11 -85.62,-31.35 -57.2,-162.96 -7.35,-267.14 72.83,-152.47 277.71,-371.37 396.15,-342.58 122.4,29.84 2.66,253.34 2.66,253.34 0,0 0,0.92 1.56,1.65 2.31,0.73 8.74,1.47 23.46,-1.65 23.62,-4.23 44.87,-12.96 44.87,-12.96 0,0 123.22,-258.22 259.23,-427.14 136.18,-169.07 407.46,-459.93 514.21,-389.49 26.31,17.2 14.35,76.79 -20.69,149.16 -15.44,4.83 -31.72,9.33 -48.27,12.56 23.72,-42.53 39.08,-78.58 43.68,-103.46 15.91,-87.35 -187.51,96.47 -333.25,294.68 -145.3,197.8 -232.66,377.25 -232.66,377.25 0,0 29.52,-16.64 75.14,-53.65 47.73,-38.62 113.37,-98.91 184.83,-172.56 48.01,-49.66 104.46,-112 157.24,-181.61 15.82,-0.65 31.27,-2.48 46.44,-5.02 -59.04,79.6 -121.02,151.87 -173.62,205.34 -57.75,58.48 -120.84,121.89 -175.45,167.77 -86.91,73.43 -154.13,114.63 -154.13,114.63 0,0 -127.27,256.7 -58.02,273.21 40.73,9.56 121.2,-114.35 121.2,-114.35 0,0 104.74,-160.01 167.92,-232.01 86.26,-98.12 160.46,-154.72 234.58,-155.92 43.03,-1.15 68.87,45.34 68.87,45.34l19.95 -31.5 125.53 0c0,0 -233.4,396.81 -252.33,426.59zm-704.21 -156.1l0 0c-2.3,-1.05 -29.24,-13.29 -57.66,-36.92 -27.96,-23.5 -42.21,-50.17 -43.32,-52.37 -1.19,-2.03 -2.48,-0.56 -3.58,1.28 -1.39,1.65 -6.35,6.07 -51.04,71.87 -44.79,65.52 -113.29,201.02 -50.96,224.05 39.64,14.76 105.94,-54.53 141.99,-100.88 33.38,-42.99 64.84,-97.84 66.66,-101.62 1.56,-3.86 0.09,-4.78 -2.11,-5.42zm63.17 -110.81l0 0c11.77,-30.48 26.21,-89.89 -4.22,-112.79 -33.11,-25.1 -116.88,32.92 -117.26,92.52 -0.64,61.19 59.14,88.6 73.48,92.6 8.09,2.03 10.94,1.57 14.8,-4.83 2.76,-4.31 21.7,-37.24 33.19,-67.49zm719.38 -83.87l0 0c2.58,-4.55 3.78,-8.63 3.78,-8.63 0,0 -2.48,-16.88 -18.58,-17.62 -19.41,-1.05 -45.98,2.76 -114.95,79.32 -68.88,76.42 -110.81,142.67 -147.03,208.93 -39.54,72.46 -55.64,126.44 -33.02,140.27 6.71,3.91 16.46,4.6 24.01,2.44 15.53,-3.59 33,-17.84 59.58,-48.87 12.69,-14.35 26.4,-34.85 42.76,-57.56 45.62,-62.45 160.65,-258.82 183.46,-298.27zm270.26 -573.07l0 0c-87.91,57.09 -210.03,108.28 -327.09,96.96 -29.7,30.58 -61.51,65.8 -93.24,105.02 203.13,39.77 380.98,-85.84 475.6,-193.42 59.22,-66.54 88.36,-126.68 88.36,-126.68 0,0 -56.37,62.21 -143.64,118.13zm-571.13 147.73l0 0c-96.29,-49.02 -166.36,-109.66 -239.83,-146.9 -69.52,-35.91 -114.76,-50.81 -171.32,-43.45 -9.2,1.29 -23.17,5.85 -23.17,5.85 0,0 29.15,99.21 -86.35,266.07 -116.78,168.79 -223.17,167.96 -253.24,121.57 -31.74,-49.38 9.01,-148.88 76.78,-237.8 71.82,-93.01 197.26,-170.2 197.26,-170.2 0,0 -40.19,-24.52 -138.4,31.16 -95.64,54.21 -260.89,183.32 -413.72,400.8 -152.37,217.89 -182.91,337.67 -204.8,432.07 -22.25,94.21 -2.02,195.04 102.63,195.04 104.55,0 226.12,-159.37 260.24,-214.95 63.73,-103.35 105.38,-261.76 18.39,-240.02 -42.76,10.72 -77.25,58.31 -99.03,103.83 -22.45,47.07 -31.46,91.77 -31.46,91.77 0,0 -36.05,12.96 -84.41,49.25 -48.83,36.31 -80.37,70.99 -80.37,70.99 0,0 0.36,-75.18 60.14,-197.2 60.14,-122.08 170.48,-177.94 232.84,-183.08 56.19,-4.38 129.28,43.31 67.58,219.77 -62.07,176.46 -245.06,390.27 -437.35,393.22 -177.65,2.47 -293.8,-224.15 -46.9,-619.57 272.93,-436.9 593.95,-571.29 698.05,-586.45 104.09,-15.08 138.03,31.22 138.03,31.22 0,0 87.36,-40.51 197.98,-33.11 127.27,8.93 225.76,98.72 355.51,161.66 -34.11,33.06 -66.02,66.9 -95.08,98.49zm-474.04 -171.32l0 0c0,0 -74.22,29.71 -160.55,124.97 -87.1,95.54 -136.93,202.63 -99.68,231.18 14.24,10.81 47.17,12.69 107.3,-41.33 46.8,-42.21 94.44,-97.39 126.72,-176.14 38.81,-94.4 26.21,-137.76 26.21,-138.68z"/>
     </g>
     <g>
      <path class="fil0" d="M19646.98 7451.18c0,-18.26 9.29,-32.19 31.36,-32.19l104.37 0c85.07,0 129.48,59.82 129.48,114.44 0,52.41 -27.59,92.84 -66.77,105.06l0 1.29c57.94,6.15 103.83,55.36 103.83,118.53 0,75.41 -55.92,140.28 -157.07,140.28l-113.84 0c-22.07,0 -31.36,-14.31 -31.36,-32.51l0 -414.9zm59.14 170.67l0 0 67.21 0c50.39,0 79.56,-33.89 79.56,-77.75 0,-43.17 -25.12,-74.07 -77.43,-74.07l-69.33 0 0 151.83zm0 225.48l0 0 83.4 0c57.94,0 100.42,-35.54 100.42,-89.02 0,-49.06 -35.67,-88.19 -97.75,-88.19l-86.07 0 0 177.21z"/>
      <path class="fil0" d="M20011.78 7567.87c0,-19.67 11.58,-31.67 29.88,-31.67 18.11,0 29.61,12 29.61,31.67l0 30.12 1.19 0c13.33,-27.32 46.54,-61.79 80.93,-61.79 20.87,0 33,13.28 33,30.26 0,16.91 -12.13,27.68 -37.14,32.4 -34.95,5.89 -77.98,32.32 -77.98,101.48l0 170.48c0,19.63 -11.5,31.68 -29.61,31.68 -18.3,0 -29.88,-12.05 -29.88,-31.68l0 -302.96z"/>
      <path class="fil0" d="M20523.7 7873.49c0,20.97 -15.99,29.01 -27.4,29.01 -12.32,0 -27.59,-8.05 -27.59,-29.01l0 -25.1 -1.37 0c-25.76,36.46 -59.4,54.12 -97.65,54.12 -101.26,0 -157.71,-88.19 -157.71,-183.32 0,-94.81 56.45,-182.99 157.71,-182.99 41.01,0 70.07,17.56 97.65,47.91l1.37 0 0 -19.04c0,-20.97 15.27,-28.87 27.59,-28.87 11.41,0 27.4,7.9 27.4,28.87l0 308.43zm-154.01 -22.25l0 0c72.64,0 98.29,-71.17 98.29,-132.06 0,-60.36 -25.65,-132.05 -98.29,-132.05 -72.94,0 -98.49,71.68 -98.49,132.05 0,60.88 25.56,132.06 98.49,132.06z"/>
      <path class="fil0" d="M20718.57 7536.2c49.1,0 119.18,26.16 119.18,63.26 0,12.79 -8.65,24.18 -26.85,24.18 -25.76,0 -35.78,-36.5 -92.33,-36.5 -33.94,0 -62.81,15.08 -62.81,45.19 0,62.82 191.45,55.96 191.45,159.82 0,74.48 -63.99,110.36 -130.67,110.36 -75.31,0 -134.72,-37.89 -134.72,-67.82 0,-16.36 11.4,-26.89 24.28,-26.89 26.12,0 47.82,43.45 112.47,43.45 42.85,0 69.24,-24.2 69.24,-48.33 0,-70.27 -191.36,-66.12 -191.36,-165.8 0,-65.89 61.98,-100.92 122.12,-100.92z"/>
      <path class="fil0" d="M20936.68 7414.58c20.33,0 36.33,16.55 36.33,36.61 0,20.23 -16,36.37 -36.33,36.37 -19.95,0 -36.22,-16.14 -36.22,-36.37 0,-20.06 16.27,-36.61 36.22,-36.61zm29.8 456.25l0 0c0,19.63 -11.6,31.68 -29.8,31.68 -18.2,0 -29.51,-12.05 -29.51,-31.68l0 -302.96c0,-19.67 11.3,-31.67 29.51,-31.67 18.2,0 29.8,12 29.8,31.67l0 302.96z"/>
      <path class="fil0" d="M21107.08 7870.83c0,19.63 -11.32,31.68 -29.52,31.68 -18.02,0 -29.61,-12.05 -29.61,-31.68l0 -460.43c0,-19.77 11.6,-31.91 29.61,-31.91 18.2,0 29.52,12.14 29.52,31.91l0 460.43z"/>
     </g>
     <g>
      <path class="fil0" d="M21248.23 5150.32c30.44,0.73 51.6,-6.62 51.6,-41.47 0,-35.13 -38.62,-35.13 -64.84,-35.13l-66.57 0 0 76.59 79.81 0zm96.56 155.87l0 0 -62.53 0 -60.23 -115.68 -53.61 0 0 115.68 -53.25 0 0 -272.74 131.97 0c22.89,0 53.05,0.51 73.38,13.47 24.74,16.23 32.19,42.81 32.19,70.81 0,49.1 -25.57,69.71 -74.03,72.78l66.12 115.68zm83.49 -138.08l0 0c0,-115.44 -93.42,-209.33 -208.92,-209.33 -117.07,0 -210.87,93.89 -210.87,209.33 0,117.39 93.8,210.63 210.87,210.63 115.5,0 208.92,-93.24 208.92,-210.63zm-468.89 0l0 0c0,-142.26 116.14,-258.07 259.97,-258.07 142.07,0 257.85,115.82 257.85,258.07 0,143.46 -115.78,259.78 -257.85,259.78 -143.83,0 -259.97,-116.32 -259.97,-259.78z"/>
      <path class="fil0" d="M17697.49 4491.64l-0.55 -614.45c0,-858.65 -726,-1557.71 -1621.58,-1557.71 -895.94,0 -1622.2,696.35 -1622.2,1555.31 0,858.89 726.27,1554.91 1622.2,1554.91 316.89,0 612.63,-87.46 862.38,-237.63 82.95,131.97 220.33,210.55 421.07,233.72 219.96,25.74 468.25,-58.12 633.58,-227.14 -247.82,-117.19 -294.91,-436.34 -294.91,-707.01zm-1641.61 100.23l0 0c-403.15,0 -730.14,-327.09 -730.14,-730.59 0,-403.24 326.99,-730.66 730.14,-730.66 403.68,0 730.68,327.42 730.68,730.66 0,403.51 -327.01,730.59 -730.68,730.59z"/>
      <path class="fil0" d="M19509.42 2319.47c-885.55,0 -1602.9,696.35 -1602.9,1555.31 0,858.89 717.35,1554.91 1602.9,1554.91 885.37,0 1602.72,-696.02 1602.72,-1554.91 0,-858.97 -717.35,-1555.31 -1602.72,-1555.31zm-0.37 2272.4l0 0c-403.69,0 -730.23,-327.09 -730.23,-730.59 0,-403.24 326.54,-730.66 730.23,-730.66 403.05,0 730.78,327.42 730.78,730.66 0,403.51 -327.73,730.59 -730.78,730.59z"/>
      <path class="fil0" d="M16356.12 1449.88c-760.49,-42.95 -1111.02,337.16 -1111.02,812.12 390.81,-182.08 682.87,-192.74 1122.79,-180.01 525.62,15.64 735.74,-325.75 735.74,-693.86 -102.9,36.33 -263.36,89.39 -747.51,61.75z"/>
      <path class="fil0" d="M12931.83 4713.02c-307.23,-5.7 -561.76,-129.84 -693.36,-315.05l2003.57 -728.48c-103.37,-761.13 -764.62,-1348.14 -1565.86,-1348.14 -872.39,0 -1580.27,696.44 -1580.27,1555.83 0,859.29 707.88,1555.54 1580.27,1555.54 827.71,0 1505.8,-626.37 1574.49,-1423.49 -299.69,435.7 -785.31,714.14 -1318.85,703.79zm-321.84 -1682.13l0 0c240.74,0 447,138.59 544.01,338.54l-1152.31 418.73c-67.13,-445.95 267.14,-757.27 608.3,-757.27z"/>
      <path class="fil0" d="M10364.85 4350.38l-2.2 -2573.69 -1049.42 352.51 0 2408.77c0,495.66 397.53,898.38 893.64,898.38 707.24,0 925.18,-541.58 948.27,-630.83 0,0 -171.78,74.12 -318.17,74.12 -290.22,0 -472.12,-239.42 -472.12,-529.27z"/>
     </g>
     <g>
      <path class="fil0" d="M9863.78 6684.72l-36.88 -97.01 -314.31 0 -36.97 99.12c-14.43,38.62 -26.67,64.78 -36.88,78.26 -10.2,13.61 -26.95,20.33 -50.11,20.33 -19.67,0 -37.06,-7.22 -52.22,-21.57 -15.09,-14.44 -22.62,-30.8 -22.62,-49.06 0,-10.57 1.73,-21.47 5.23,-32.68 3.5,-11.26 9.38,-26.91 17.39,-46.95l197.79 -501.99c5.62,-14.44 12.43,-31.72 20.33,-52.01 7.91,-20.09 16.28,-37.01 25.29,-50.3 8.92,-13.43 20.69,-24.14 35.31,-32.46 14.61,-8.27 32.64,-12.37 54.06,-12.37 21.79,0 40,4.1 54.53,12.37 14.63,8.31 26.4,18.86 35.41,31.91 8.92,12.96 16.46,26.99 22.62,41.93 6.15,14.99 13.97,34.9 23.45,59.86l202.02 498.88c15.82,37.97 23.73,65.46 23.73,82.76 0,17.92 -7.45,34.39 -22.43,49.29 -14.89,14.95 -32.92,22.39 -54.06,22.39 -12.33,0 -22.9,-2.22 -31.64,-6.62 -8.73,-4.28 -16.1,-10.36 -22.15,-17.88 -5.98,-7.5 -12.33,-19.14 -19.22,-34.82 -6.81,-15.63 -12.69,-29.41 -17.66,-41.37zm-310.08 -214.58l0 0 230.99 0 -116.51 -319 -114.48 319z"/>
      <path class="fil0" d="M10461.41 6080.97l0 562.64 317.44 0c25.29,0 44.7,6.07 58.31,18.44 13.51,12.23 20.22,27.72 20.22,46.43 0,18.94 -6.62,34.35 -20.05,46.07 -13.33,11.81 -32.83,17.7 -58.48,17.7l-378.12 0c-34.03,0 -58.58,-7.58 -73.58,-22.66 -14.89,-15.17 -22.43,-39.54 -22.43,-73.34l0 -595.29c0,-31.63 7.18,-55.4 21.43,-71.16 14.16,-15.83 32.92,-23.78 56.19,-23.78 23.45,0 42.57,7.82 57.19,23.45 14.63,15.68 21.89,39.45 21.89,71.49z"/>
      <path class="fil0" d="M11128.55 6690l0 -609.04c0,-31.63 7.18,-55.4 21.71,-71.16 14.43,-15.83 32.91,-23.78 55.81,-23.78 23.54,0 42.67,7.82 57.19,23.45 14.63,15.68 21.98,39.45 21.98,71.49l0 609.04c0,31.95 -7.35,55.87 -21.98,71.74 -14.52,15.82 -33.65,23.68 -57.19,23.68 -22.43,0 -41.01,-7.95 -55.55,-24.01 -14.71,-15.95 -21.98,-39.72 -21.98,-71.4z"/>
      <path class="fil0" d="M11883.34 6655.76l-123.96 -492.52 0 533.62c0,29.52 -6.53,51.69 -19.77,66.45 -13.16,14.75 -30.63,22.11 -52.42,22.11 -21.14,0 -38.34,-7.22 -51.77,-21.89 -13.33,-14.53 -19.95,-36.84 -19.95,-66.68l0 -611.65c0,-33.74 8.74,-56.55 26.4,-68.36 17.56,-11.69 41.28,-17.62 71.17,-17.62l48.46 0c29.24,0 50.39,2.62 63.54,7.95 13.15,5.25 22.98,14.76 29.33,28.47 6.25,13.69 13.43,35.95 21.51,66.94l112.37 423.4 112.28 -423.4c8.18,-30.99 15.35,-53.25 21.7,-66.94 6.25,-13.71 16.1,-23.22 29.24,-28.47 13.15,-5.34 34.3,-7.95 63.54,-7.95l48.55 0c29.79,0 53.52,5.93 71.17,17.62 17.56,11.81 26.4,34.62 26.4,68.36l0 611.65c0,29.52 -6.62,51.69 -19.87,66.45 -13.15,14.75 -30.8,22.11 -52.96,22.11 -20.79,0 -37.72,-7.37 -51.13,-22.11 -13.43,-14.76 -20.05,-36.93 -20.05,-66.45l0 -533.62 -123.96 492.52c-8.1,31.9 -14.63,55.44 -19.78,70.33 -5.06,14.95 -14.52,28.56 -28.23,40.88 -13.71,12.28 -32.64,18.44 -56.92,18.44 -18.3,0 -33.75,-3.96 -46.43,-11.86 -12.61,-7.91 -22.45,-18.07 -29.52,-30.3 -6.99,-12.33 -12.51,-25.93 -16.56,-40.93 -4.04,-14.84 -8.18,-30.43 -12.41,-46.56z"/>
      <path class="fil0" d="M13193.36 6119.97l-352.84 0 0 189.89 324.88 0c23.92,0 41.76,5.38 53.53,16.04 11.76,10.76 17.64,24.88 17.64,42.49 0,17.47 -5.79,31.76 -17.38,42.84 -11.58,11.09 -29.52,16.64 -53.8,16.64l-324.88 0 0 219.92 364.98 0c24.56,0 43.13,5.71 55.64,17.11 12.51,11.5 18.67,26.67 18.67,45.66 0,18.26 -6.17,33.11 -18.67,44.51 -12.51,11.49 -31.08,17.19 -55.64,17.19l-425.58 0c-34.02,0 -58.67,-7.58 -73.56,-22.66 -14.89,-15.17 -22.43,-39.54 -22.43,-73.34l0 -581.08c0,-22.53 3.4,-40.92 10.02,-55.13 6.71,-14.25 17.11,-24.6 31.36,-31.12 14.35,-6.43 32.46,-9.7 54.61,-9.7l413.45 0c25.01,0 43.49,5.51 55.63,16.55 12.14,11.09 18.22,25.61 18.22,43.59 0,18.2 -6.07,32.87 -18.22,43.96 -12.13,11.08 -30.62,16.64 -55.63,16.64z"/>
      <path class="fil0" d="M13770.39 6079.91l301.15 455.61 0 -459.84c0,-29.94 6.43,-52.32 19.22,-67.26 12.88,-14.85 30.07,-22.39 51.96,-22.39 22.43,0 40.28,7.54 53.25,22.39 12.96,14.95 19.49,37.33 19.49,67.26l0 608.02c0,67.77 -28.13,101.71 -84.32,101.71 -14.07,0 -26.67,-1.98 -37.98,-6.07 -11.3,-4 -21.87,-10.44 -31.72,-19.18 -9.74,-8.86 -18.94,-19.12 -27.4,-30.94 -8.37,-11.73 -16.83,-23.86 -25.29,-36.1l-293.71 -450.31 0 453.03c0,29.51 -6.81,51.77 -20.59,66.94 -13.71,15.08 -31.36,22.62 -52.7,22.62 -22.15,0 -39.9,-7.63 -53.24,-22.94 -13.43,-15.27 -20.05,-37.57 -20.05,-66.62l0 -596.4c0,-25.33 2.76,-45.28 8.46,-59.63 6.62,-15.82 17.66,-28.79 33.19,-38.81 15.45,-10.02 32.19,-14.99 50.02,-14.99 14.08,0 26.12,2.22 36.14,6.9 10.12,4.51 18.86,10.62 26.4,18.44 7.54,7.71 15.27,17.7 23.26,30.02 7.82,12.28 16,25.1 24.46,38.53z"/>
      <path class="fil0" d="M15050.88 6128.43l-170.86 0 0 561.58c0,32.28 -7.18,56.32 -21.62,71.96 -14.43,15.68 -33,23.45 -55.91,23.45 -23.17,0 -42.11,-7.86 -56.64,-23.68 -14.63,-15.87 -21.98,-39.78 -21.98,-71.74l0 -561.58 -170.84 0c-26.67,0 -46.52,-5.94 -59.5,-17.71 -13.05,-11.68 -19.58,-27.35 -19.58,-46.62 0,-20.1 6.79,-35.86 20.31,-47.5 13.52,-11.53 33.21,-17.38 58.76,-17.38l497.85 0c27.12,0 47.26,5.93 60.42,17.94 13.15,11.9 19.77,27.53 19.77,46.94 0,19.27 -6.62,34.94 -20.05,46.62 -13.43,11.77 -33.47,17.71 -60.14,17.71z"/>
      <path class="fil0" d="M15711.77 5986.03c80.2,0 148.98,16.23 206.45,48.74 57.47,32.6 100.96,78.81 130.48,138.67 29.61,60.06 44.32,130.4 44.32,211.28 0,59.67 -8.09,113.98 -24.28,162.94 -16.08,48.78 -40.37,91.18 -72.74,127.04 -32.36,35.86 -72,63.31 -119.18,82.25 -47.17,19.03 -101.06,28.47 -161.93,28.47 -60.42,0 -114.58,-9.76 -162.4,-29.29 -47.82,-19.49 -87.74,-47.03 -119.73,-82.48 -32,-35.54 -56.09,-78.26 -72.56,-128.15 -16.27,-49.93 -24.45,-103.86 -24.45,-161.85 0,-59.44 8.54,-113.84 25.56,-163.45 17.1,-49.57 41.75,-91.77 74.12,-126.57 32.36,-34.77 71.72,-61.47 118.07,-79.96 46.43,-18.44 99.12,-27.64 158.24,-27.64zm222.55 397.62l0 0c0,-56.6 -9.2,-105.65 -27.41,-147.13 -18.3,-41.52 -44.4,-72.83 -78.34,-94.16 -33.93,-21.25 -72.83,-31.82 -116.79,-31.82 -31.35,0 -60.23,5.89 -86.8,17.56 -26.48,11.85 -49.38,28.92 -68.51,51.49 -19.12,22.43 -34.3,51.28 -45.34,86.16 -11.12,35.03 -16.64,74.26 -16.64,117.89 0,43.83 5.53,83.6 16.64,119.14 11.04,35.45 26.76,64.96 46.9,88.32 20.23,23.4 43.4,40.87 69.61,52.5 26.21,11.58 54.89,17.38 86.26,17.38 40.09,0 76.87,-10.02 110.44,-30.02 33.66,-20.1 60.32,-51.09 80.18,-92.84 19.86,-41.84 29.8,-93.34 29.8,-154.49z"/>
      <path class="fil0" d="M16976.46 6540.26c0,46.66 -12.04,88.68 -36.13,125.97 -24.1,37.25 -59.32,66.44 -105.75,87.59 -46.44,21.1 -101.43,31.59 -165.06,31.59 -76.23,0 -139.23,-14.44 -188.79,-43.23 -35.13,-20.73 -63.73,-48.37 -85.6,-83.08 -22.07,-34.62 -33.02,-68.23 -33.02,-100.98 0,-18.94 6.62,-35.17 19.77,-48.78 13.25,-13.52 29.99,-20.27 50.3,-20.27 16.64,0 30.54,5.25 41.93,15.82 11.5,10.53 21.15,26.17 29.33,46.95 9.76,24.6 20.42,45.15 31.91,61.65 11.4,16.51 27.4,30.22 48.27,40.88 20.7,10.72 47.91,16.15 81.66,16.15 46.43,0 84.15,-10.9 113.11,-32.51 29.05,-21.61 43.59,-48.61 43.59,-80.93 0,-25.69 -7.82,-46.48 -23.54,-62.53 -15.63,-15.91 -35.86,-28.13 -60.6,-36.55 -24.73,-8.46 -57.94,-17.47 -99.4,-26.89 -55.55,-13.11 -102.07,-28.28 -139.49,-45.66 -37.44,-17.39 -67.13,-41.11 -89.11,-71.17 -21.98,-30.03 -33.02,-67.41 -33.02,-112.05 0,-42.57 11.69,-80.37 34.86,-113.33 23.26,-33.15 56.73,-58.44 100.68,-76.29 44.06,-17.7 95.73,-26.57 155.04,-26.57 47.55,0 88.56,5.94 123.13,17.62 34.67,11.81 63.37,27.44 86.26,46.94 22.9,19.5 39.54,40 50.11,61.53 10.49,21.38 15.82,42.29 15.82,62.71 0,18.58 -6.62,35.45 -19.77,50.3 -13.24,14.99 -29.6,22.47 -49.29,22.47 -18.03,0 -31.54,-4.5 -40.92,-13.47 -9.29,-9.01 -19.41,-23.64 -30.35,-43.96 -13.97,-29.28 -30.9,-52 -50.57,-68.41 -19.78,-16.32 -51.32,-24.41 -94.9,-24.41 -40.47,0 -73.02,8.82 -97.84,26.57 -24.82,17.79 -37.16,39.09 -37.16,64.1 0,15.44 4.14,28.83 12.6,40.04 8.46,11.22 20.05,20.93 34.86,29.07 14.71,7.99 29.7,14.35 44.78,18.98 15.08,4.51 40.09,11.17 74.94,20.05 43.51,10.08 83.04,21.38 118.35,33.71 35.31,12.28 65.38,27.21 90.13,44.83 24.82,17.51 44.23,39.72 58.02,66.57 13.89,26.95 20.87,59.96 20.87,99z"/>
      <path class="fil0" d="M9876.48 7174.44l-384.94 0 0 207 354.41 0c26.12,0 45.62,5.93 58.4,17.64 12.87,11.64 19.22,27.13 19.22,46.16 0,19.22 -6.26,34.94 -18.95,46.99 -12.69,12.09 -32.19,18.12 -58.67,18.12l-354.41 0 0 239.82 398.18 0c26.85,0 47.08,6.26 60.68,18.71 13.61,12.56 20.42,29.07 20.42,49.7 0,20.01 -6.81,36.19 -20.42,48.65 -13.6,12.56 -33.83,18.8 -60.68,18.8l-464.3 0c-37.14,0 -63.9,-8.31 -80.18,-24.77 -16.36,-16.6 -24.46,-43.17 -24.46,-79.97l0 -633.86c0,-24.6 3.68,-44.64 10.94,-60.23 7.26,-15.53 18.67,-26.8 34.21,-33.83 15.45,-7.09 35.41,-10.68 59.5,-10.68l451.06 0c27.21,0 47.45,5.98 60.59,18.12 13.33,12.05 19.95,27.81 19.95,47.5 0,19.9 -6.62,35.86 -19.95,47.95 -13.15,12 -33.38,18.16 -60.59,18.16z"/>
      <path class="fil0" d="M11114.58 7886.04l-257.66 0c-37.25,0 -63.82,-8.45 -79.73,-25.1 -15.91,-16.68 -23.9,-43.25 -23.9,-79.64l0 -633.86c0,-37.24 8.18,-64.05 24.45,-80.28 16.38,-16.23 42.68,-24.46 79.18,-24.46l273.21 0c40.19,0 75.13,2.4 104.65,7.45 29.51,5.02 56,14.63 79.36,28.75 19.95,11.9 37.61,26.99 52.97,45.1 15.35,18.26 27.03,38.4 35.13,60.47 7.99,22.02 11.94,45.34 11.94,69.93 0,84.32 -42.11,146.07 -126.43,185.19 110.8,35.23 166.16,104.01 166.16,205.85 0,47.27 -12.05,89.75 -36.23,127.55 -24.09,37.74 -56.73,65.61 -97.75,83.59 -25.66,10.81 -55.17,18.39 -88.55,22.81 -33.38,4.32 -72.28,6.66 -116.79,6.66zm-190.44 -715.06l0 0 0 217.98 156.51 0c42.57,0 75.5,-3.99 98.67,-12.04 23.17,-8.09 40.92,-23.45 53.14,-46.07 9.57,-16.06 14.44,-34.07 14.44,-53.98 0,-42.67 -15.17,-70.95 -45.51,-84.96 -30.26,-13.88 -76.51,-20.93 -138.59,-20.93l-138.67 0zm177.74 340.53l0 0 -177.74 0 0 246.17 183.55 0c115.4,0 173.15,-41.52 173.15,-124.88 0,-42.53 -15,-73.39 -44.88,-92.52 -29.98,-19.16 -74.58,-28.77 -134.07,-28.77z"/>
      <path class="fil0" d="M12334.21 7174.44l-384.85 0 0 207 354.41 0c26.02,0 45.43,5.93 58.3,17.64 12.88,11.64 19.22,27.13 19.22,46.16 0,19.22 -6.25,34.94 -18.94,46.99 -12.6,12.09 -32.18,18.12 -58.58,18.12l-354.41 0 0 239.82 397.99 0c26.85,0 47.08,6.26 60.78,18.71 13.61,12.56 20.33,29.07 20.33,49.7 0,20.01 -6.71,36.19 -20.33,48.65 -13.69,12.56 -33.93,18.8 -60.78,18.8l-464.11 0c-37.24,0 -63.99,-8.31 -80.28,-24.77 -16.36,-16.6 -24.46,-43.17 -24.46,-79.97l0 -633.86c0,-24.6 3.68,-44.64 10.94,-60.23 7.27,-15.53 18.67,-26.8 34.22,-33.83 15.53,-7.09 35.39,-10.68 59.58,-10.68l450.96 0c27.21,0 47.45,5.98 60.68,18.12 13.24,12.05 19.78,27.81 19.78,47.5 0,19.9 -6.54,35.86 -19.78,47.95 -13.24,12 -33.47,18.16 -60.68,18.16z"/>
      <path class="fil0" d="M13101.13 7886.04l-257.75 0c-37.16,0 -63.73,-8.45 -79.73,-25.1 -15.91,-16.68 -23.81,-43.25 -23.81,-79.64l0 -633.86c0,-37.24 8.09,-64.05 24.45,-80.28 16.28,-16.23 42.67,-24.46 79.09,-24.46l273.19 0c40.28,0 75.23,2.4 104.74,7.45 29.52,5.02 56.01,14.63 79.37,28.75 19.95,11.9 37.61,26.99 52.86,45.1 15.36,18.26 27.13,38.4 35.23,60.47 7.9,22.02 11.94,45.34 11.94,69.93 0,84.32 -42.12,146.07 -126.53,185.19 110.81,35.23 166.27,104.01 166.27,205.85 0,47.27 -12.05,89.75 -36.23,127.55 -24.18,37.74 -56.73,65.61 -97.84,83.59 -25.65,10.81 -55.17,18.39 -88.55,22.81 -33.39,4.32 -72.28,6.66 -116.7,6.66zm-190.54 -715.06l0 0 0 217.98 156.51 0c42.59,0 75.51,-3.99 98.68,-12.04 23.17,-8.09 41.01,-23.45 53.24,-46.07 9.57,-16.06 14.35,-34.07 14.35,-53.98 0,-42.67 -15.17,-70.95 -45.43,-84.96 -30.34,-13.88 -76.5,-20.93 -138.67,-20.93l-138.68 0zm177.85 340.53l0 0 -177.85 0 0 246.17 183.55 0c115.5,0 173.17,-41.52 173.17,-124.88 0,-42.53 -15,-73.39 -44.79,-92.52 -29.98,-19.16 -74.58,-28.77 -134.07,-28.77z"/>
      <path class="fil0" d="M13771.86 7796.21l0 -664.34c0,-34.54 7.91,-60.38 23.64,-77.66 15.72,-17.34 36.05,-25.84 60.96,-25.84 25.65,0 46.52,8.41 62.43,25.5 15.91,17.07 23.82,43.04 23.82,77.99l0 664.34c0,34.94 -7.91,61 -23.82,78.25 -15.91,17.28 -36.78,25.93 -62.43,25.93 -24.56,0 -44.88,-8.78 -60.7,-26.16 -15.91,-17.52 -23.9,-43.49 -23.9,-78.02z"/>
      <path class="fil0" d="M14416.31 7042.7l222.61 0c57.84,0 107.49,5.34 148.97,16.15 41.37,10.76 78.98,30.84 112.73,60.32 87.72,75.17 131.69,189.42 131.69,342.9 0,50.58 -4.42,96.79 -13.15,138.53 -8.84,41.89 -22.45,79.54 -40.93,113.11 -18.39,33.53 -42.01,63.45 -70.71,90.03 -22.62,20.27 -47.37,36.59 -74.22,48.82 -26.84,12.28 -55.72,20.93 -86.62,25.89 -30.71,5.02 -65.57,7.58 -104.37,7.58l-222.61 0c-31.08,0 -54.45,-4.78 -70.17,-14.16 -15.72,-9.38 -25.93,-22.53 -30.71,-39.77 -4.87,-17.06 -7.26,-39.08 -7.26,-66.34l0 -618.32c0,-36.92 8.27,-63.49 24.82,-80.04 16.36,-16.47 43.04,-24.7 79.92,-24.7zm66.12 135.18l0 0 0 572.29 129.38 0c28.4,0 50.66,-0.73 66.74,-2.2 16.19,-1.71 32.83,-5.38 50.13,-11.64 17.19,-6.06 32.18,-14.76 44.87,-25.84 57.01,-48.27 85.62,-131.5 85.62,-249.67 0,-83.17 -12.51,-145.51 -37.61,-186.95 -25.1,-41.37 -56.19,-67.72 -92.88,-79.04 -36.88,-11.3 -81.29,-16.96 -133.51,-16.96l-112.73 0z"/>
      <path class="fil0" d="M15853.85 7790.46l-40.19 -105.79 -342.91 0 -40.28 108.14c-15.72,42.2 -29.15,70.67 -40.19,85.43 -11.12,14.76 -29.41,22.15 -54.71,22.15 -21.43,0 -40.47,-7.9 -56.92,-23.62 -16.56,-15.74 -24.74,-33.57 -24.74,-53.48 0,-11.49 1.94,-23.41 5.81,-35.69 3.76,-12.23 10.1,-29.37 18.94,-51.26l215.73 -547.55c6.17,-15.74 13.52,-34.63 22.17,-56.65 8.55,-22.02 17.83,-40.37 27.59,-54.99 9.74,-14.53 22.62,-26.21 38.53,-35.26 15.91,-9.12 35.58,-13.52 58.94,-13.52 23.82,0 43.68,4.4 59.59,13.52 15.82,9.05 28.69,20.5 38.53,34.75 9.76,14.16 18.03,29.47 24.74,45.7 6.62,16.32 15.16,38.08 25.56,65.3l220.33 544.2c17.28,41.47 25.84,71.4 25.84,90.3 0,19.58 -8.09,37.42 -24.37,53.78 -16.36,16.23 -35.95,24.46 -59.03,24.46 -13.43,0 -24.92,-2.48 -34.49,-7.17 -9.57,-4.87 -17.66,-11.41 -24.18,-19.63 -6.53,-8.23 -13.52,-20.87 -20.97,-37.94 -7.45,-17.14 -13.89,-32.08 -19.31,-45.19zm-338.12 -234.12l0 0 251.87 0 -127.09 -347.97 -124.77 347.97z"/>
      <path class="fil0" d="M16979.13 7632.8c0,51.04 -13.05,96.92 -39.36,137.56 -26.29,40.71 -64.74,72.43 -115.31,95.41 -50.68,23.13 -110.72,34.62 -180.15,34.62 -83.13,0 -151.83,-15.76 -205.89,-47.26 -38.34,-22.58 -69.52,-52.74 -93.44,-90.49 -24,-37.89 -36.05,-74.54 -36.05,-110.21 0,-20.69 7.27,-38.4 21.62,-53.16 14.43,-14.75 32.64,-22.3 54.99,-22.3 18.03,0 33.19,5.85 45.7,17.34 12.41,11.45 23.18,28.6 31.91,51.13 10.68,26.99 22.35,49.38 34.77,67.41 12.51,17.92 30.07,32.92 52.6,44.5 22.72,11.73 52.42,17.62 89.29,17.62 50.58,0 91.69,-11.81 123.32,-35.45 31.63,-23.5 47.45,-52.97 47.45,-88.23 0,-27.96 -8.54,-50.77 -25.56,-68.15 -17.02,-17.43 -39.08,-30.84 -66.12,-39.96 -27.13,-9.2 -63.27,-19.03 -108.42,-29.47 -60.68,-14.16 -111.36,-30.67 -152.19,-49.66 -40.83,-18.99 -73.19,-44.96 -97.2,-77.61 -24,-32.83 -35.95,-73.66 -35.95,-122.26 0,-46.52 12.6,-87.63 37.98,-123.72 25.29,-36.05 61.89,-63.73 109.8,-83.08 47.99,-19.41 104.37,-29.01 169.11,-29.01 51.77,0 96.55,6.38 134.34,19.16 37.8,12.88 69.16,29.98 93.98,51.26 25.01,21.34 43.31,43.55 54.81,67 11.4,23.41 17.1,46.2 17.1,68.41 0,20.37 -7.17,38.72 -21.51,54.95 -14.35,16.28 -32.28,24.37 -53.8,24.37 -19.5,0 -34.39,-4.82 -44.6,-14.53 -10.1,-9.84 -21.14,-25.84 -33.1,-48.09 -15.27,-31.86 -33.66,-56.64 -55.17,-74.48 -21.43,-17.79 -56,-26.76 -103.55,-26.76 -44.04,0 -79.62,9.7 -106.66,29.11 -27.13,19.39 -40.56,42.65 -40.56,69.79 0,16.92 4.68,31.59 13.8,43.82 9.2,12.24 21.87,22.85 37.97,31.59 16.1,8.88 32.47,15.72 48.93,20.74 16.46,5 43.68,12.23 81.66,21.79 47.54,11.17 90.57,23.49 129.1,36.92 38.62,13.39 71.36,29.61 98.4,48.83 27.03,19.18 48.09,43.44 63.26,72.74 15.17,29.37 22.72,65.29 22.72,107.82z"/>
     </g>
    </g>
   </g>
   <g>
    <path class="fil0" d="M7475.93 5615.26c309.54,16.23 585.13,-162.44 700.44,-429.25 30.8,-70.63 50.39,-147.69 55.81,-228.66 10.3,-143.44 -23.54,-280.15 -90.11,-396.79 -112.65,-198.16 -319.56,-339.64 -565.17,-361.57 -4.23,-0.51 -8.93,-0.64 -13.43,-0.92 -4.14,-0.55 -8.84,-0.51 -13.43,-0.55 -6.81,-0.69 -13.89,-0.88 -20.97,-1.07 -1.2,0.09 -2.31,-0.23 -3.5,-0.41 -129.02,-4.36 -255,7.54 -375.73,35.05 -95.36,21.38 -187.51,52.41 -275.05,91.81 -125.33,56.41 -241.2,130.12 -344.66,218.45 -175.73,149.93 -314.58,341.66 -400.46,561.03 -50.11,128.32 -81.93,266.36 -92.14,410.59 -5.51,77.01 -4.96,152.88 2.02,227.22 27.68,306.77 155.42,587.88 352.39,809.41 0.36,-3.18 0.45,-6.35 0.36,-9.52 14.35,-201.66 88.74,-385.3 204.7,-534.87 82.4,-106.17 185.84,-195.41 303.36,-261.21 168.65,-95.21 367,-143.44 575.56,-128.74z"/>
    <path class="fil0" d="M6898.35 1136.71c-82.12,-196.27 -198.16,-376.84 -344.93,-536.66 -277.72,-301.7 -637.09,-499.14 -1039.11,-570.91 -108.33,-19.31 -218.96,-29.15 -329.02,-29.15 -454.65,0 -892.36,166.2 -1232.51,468.01l-5.98 4.74c-3.95,2.71 -9.37,7.82 -14.71,12.83l-5.25 4.87c-7.9,7.41 -15.72,15.13 -23.53,22.9l-5.81 5.61c-11.85,11.32 -23.72,22.58 -35.03,33.85l-6.53 6.71c-263,259.27 -485.53,553.85 -661.63,875.42 -113.94,208.05 -208.65,428.34 -281.58,654.51 -104.65,325.11 -164.88,662.97 -179.04,1004.23 -24.28,573.57 84.23,1153.69 313.58,1677.56 167.08,381.86 396.61,732.95 682.41,1043.53 146.11,158.95 305.29,305.16 472.93,434.6 583.93,451.68 1276.55,718.22 2012.39,775.93 -302.64,-363.6 -507.24,-796.25 -594.59,-1259.54 -64.27,-339.96 -64.84,-685.59 -1.56,-1027.15 110.71,-594.83 405.07,-1125.93 851.24,-1535.92 553.41,-529.17 725.91,-1359.77 428.25,-2065.96z"/>
    <path class="fil0" d="M323.7 8050.09c0.45,0.84 1.56,3.31 2.48,5.85l2.03 5.1c1.47,3.64 2.94,7.22 4.31,11l1.2 2.71c4.14,9.33 8.09,18.44 12.05,27.72 122.66,282.55 304.28,526.22 539.42,723.92 356.42,299.33 808.39,464.2 1272.59,464.26 215.73,0 429.25,-35.5 634.87,-105.47 26.1,-9.06 57.28,-20.06 87.35,-31.96 189.62,-74.62 365.07,-176.6 521.77,-303.22 206.08,-167.41 377.67,-377.2 502.17,-612.79 -132.69,37.61 -269.43,56.64 -407.82,56.64 -623.48,0 -1173.47,-374.82 -1401.34,-954.98 -45.15,-108.18 -108.42,-205.7 -187.59,-288.56 -179.96,-190.17 -432.84,-299.1 -694.09,-299.1 -104.01,0 -206.9,17.07 -305.85,50.77 -295.91,100.83 -531.24,350.63 -613.91,651.93 -52.97,193.38 -43.95,395.42 26.12,584.1l4.23 12.09z"/>
    <path class="fil0" d="M5025 7279.13l149.89 42.81c4.96,1.41 9.84,3.07 14.71,4.91 217.3,65.38 449.76,65.06 666.88,-0.77 123.04,-37.25 240.84,-95.96 345.4,-170.86 -760.86,-60.15 -1477.48,-335.33 -2081.55,-802.55 -173.53,-134.03 -338.31,-285.45 -489.67,-449.95 -295.83,-321.53 -533.54,-685.08 -706.6,-1080.63 -237.53,-542.5 -349.8,-1143.27 -324.7,-1737.11 4.87,-116.84 15.35,-233.21 30.62,-348.93 -53.24,-24.37 -107.86,-46.63 -163.96,-66.04 -194.77,-67.34 -399.1,-101.56 -607.29,-101.56 -364.15,0 -716.8,105.39 -1019.8,304.66 -513.49,338.07 -826.98,906.23 -838.47,1519.96 -0.55,10.61 -0.45,18.84 -0.45,26.99l0 7.26c0,11.22 0,22.17 0.45,33.15l2.12 68.28c11.66,330.86 66.76,659.6 163.77,974.78 74.02,242.08 173.79,478.6 296.47,703.25 95.36,174.03 204.69,339.92 325.99,496.94 24.64,-10.44 49.55,-20.33 75.13,-29.01 112.92,-38.49 230.45,-57.98 349.16,-57.98 298.03,0 586.59,124.28 791.48,340.89 90.49,94.62 162.85,205.98 214.9,330.77 181.89,463.28 587.98,782.51 1066.89,855.19 0.64,0.09 1.2,0.15 1.84,0.24 67.96,10.25 137.38,15.53 207.92,15.53 171.31,0 339.87,-32.04 500.8,-95.26 3.03,-1.15 5.51,-2.44 7.81,-3.5l162.22 -78.43 -71.17 165.52c-2.5,5.79 -5.43,11.36 -8.01,17.15 101.24,-7.95 201.94,-19.86 301.34,-35.73 348.16,-55.81 681.96,-159.05 995.26,-305.06 -112.28,-120.46 -209.67,-256.1 -287.65,-406.49l-71.72 -138.4z"/>
    <path class="fil0" d="M7789.96 6029.11c-86.16,-26.53 -176.56,-37.78 -266.12,-33.7 -339.23,14.4 -638.45,244.61 -744.86,572.89 -76.31,251.41 -223.27,472.8 -424.29,639.01 -61.7,51.54 -129.11,97.24 -200.1,136.88 -82.31,45.84 -169.39,83.4 -259.13,110.57 -121.76,36.88 -247.56,55.6 -374,55.6 -76.51,0 -152.73,-6.9 -228.04,-20.51 63.17,99.04 135.72,190.17 216.55,272.7 131.22,133.89 284.23,244.97 455.27,328.79 78.72,38.85 163.32,72.08 251.51,98.85 157.8,47.91 320.47,72.23 483.42,72.23l11.68 -0.05c275.04,-2.11 549.43,-73.42 793.49,-206.4 143.18,-77.97 274.22,-175.63 389.53,-290.21 81.93,-81.33 155.59,-171.04 219.13,-266.68 81.57,-122.12 147.95,-256.28 197.52,-399.09 0.73,-3.03 1.75,-6.53 3.22,-10.4l1.29 -3.63c1.65,-4.87 3.4,-9.7 4.68,-14.52l3.04 -9.12c0.73,-1.83 1.47,-3.58 1.94,-5.37l2.75 -9.06c0.92,-2.67 1.75,-5.34 2.48,-7.91 74.67,-263.51 16.64,-544.48 -154.85,-752.85 -100.6,-122.72 -234.02,-211.91 -386.13,-258.03z"/>
   </g>
  </g>
 </g>
</svg>
