<svg xmlns="http://www.w3.org/2000/svg" id="Camada_1" data-name="Camada 1" viewBox="0 0 114.59 31.59"><defs><style> .cls-1 { fill: #00b5a5; } .cls-2 { fill: #23979a; } .cls-3 { fill: #f47934; } .cls-4 { fill: #ae2375; } .cls-5 { fill: none; } .cls-6 { fill: #131f6b; } .cls-7 { fill: #f79433; } .cls-8 { fill: #f69033; } </style></defs><g><path class="cls-6" d="m59.94,18.45h-4.95c-.19,0-.36.07-.49.2-.13.13-.2.3-.2.49v1.24c0,.19.07.36.2.49.13.13.3.2.49.2h2.01c.14,0,.24.04.31.13.04.05.08.14,0,.31-.09.22-.21.45-.38.66-.29.38-.62.7-.97.95-.36.26-.77.47-1.22.61-.44.15-.91.23-1.39.23-.63,0-1.22-.13-1.77-.4-.57-.25-1.05-.6-1.44-1.03-.4-.43-.74-.94-.99-1.51-.24-.55-.36-1.16-.36-1.81s.12-1.24.36-1.81c.25-.57.59-1.08.99-1.51.38-.42.87-.77,1.44-1.04.57-.25,1.16-.38,1.77-.38.74,0,1.46.2,2.13.61.24.14.46.3.65.47.2.18.39.37.57.58.13.13.28.21.46.26.18.04.36.01.52-.09l1.32-.8c.16-.1.26-.25.3-.43.04-.18,0-.35-.12-.5-.6-.78-1.36-1.43-2.26-1.92-1.07-.6-2.27-.9-3.57-.9-1.02,0-1.99.2-2.89.59-.88.39-1.68.92-2.37,1.59-.34.34-.65.71-.91,1.1-.27.39-.5.82-.7,1.27-.39.93-.59,1.9-.59,2.9s.2,1.99.59,2.88c.38.87.92,1.66,1.61,2.35.68.68,1.47,1.22,2.37,1.61.9.39,1.87.59,2.88.59.92,0,1.82-.16,2.67-.47.85-.31,1.6-.76,2.24-1.31.64-.55,1.17-1.21,1.59-1.98.4-.74.65-1.59.72-2.5.01-.04.02-.12.03-.47,0-.26.02-.51.03-.78,0-.19-.07-.36-.2-.49-.13-.13-.3-.2-.49-.2Z"></path><path class="cls-6" d="m72.47,12.01h-9.25c-.19,0-.36.07-.49.2-.13.13-.2.3-.2.49v12.99c0,.19.07.36.2.49.13.13.3.2.49.2h9.25c.19,0,.36-.07.49-.2.13-.13.2-.3.2-.49v-1.24c0-.19-.07-.36-.2-.49-.13-.13-.3-.2-.49-.2h-6.53c-.14,0-.26-.05-.36-.15-.1-.1-.15-.22-.15-.36v-2.13c0-.14.05-.26.15-.36.1-.1.22-.15.36-.15h5.66c.19,0,.36-.07.49-.2.13-.13.2-.3.2-.49v-1.26c0-.19-.07-.36-.2-.49-.13-.13-.3-.2-.49-.2h-5.66c-.14,0-.26-.05-.36-.15s-.15-.22-.15-.36v-2.35c0-.14.05-.26.15-.36.1-.1.22-.15.36-.15h6.53c.19,0,.36-.07.49-.2.13-.13.2-.3.2-.49v-1.2c0-.19-.07-.36-.2-.49-.13-.13-.3-.2-.49-.2Z"></path><path class="cls-6" d="m85.57,23.76c-.43-.57-.89-1.18-1.37-1.83-.08-.11-.11-.21-.08-.32.03-.11.11-.2.23-.27.67-.37,1.22-.87,1.64-1.5.54-.79.81-1.75.81-2.86,0-.72-.12-1.39-.35-2.01-.12-.3-.26-.58-.43-.85-.17-.26-.37-.51-.59-.73-.43-.42-.96-.76-1.56-1.03-.62-.24-1.3-.35-2.03-.35h-5.85c-.19,0-.36.07-.49.2-.13.13-.2.3-.2.49v12.99c0,.19.07.36.2.49.13.13.3.2.49.2h1.53c.19,0,.35-.07.48-.2.13-.13.19-.3.19-.49v-3.31c0-.14.05-.26.15-.36.1-.1.22-.15.36-.15h1.49c.15,0,.32.04.48.13.17.08.3.19.39.32l1.28,1.8c.22.3.44.59.65.88.21.29.43.58.65.88.11.14.26.26.46.35.19.1.38.15.56.15h1.96c.26,0,.37-.15.41-.28.05-.17.02-.34-.1-.51-.47-.65-.92-1.27-1.35-1.83Zm-1.66-6.78c0,.41-.06.75-.19,1.01-.14.29-.3.53-.49.71-.18.18-.41.33-.69.43-.26.1-.5.15-.72.15h-3.14c-.14,0-.26-.05-.36-.15-.1-.1-.15-.22-.15-.36v-3.66c0-.14.05-.26.15-.36.1-.1.22-.15.36-.15h3.14c.45,0,.82.09,1.1.26.27.17.48.38.63.62.06.13.12.26.17.39.05.13.09.26.11.4.05.25.08.5.08.72Z"></path><path class="cls-6" d="m114.46,25.6c-.47-.65-.92-1.26-1.35-1.83-.43-.57-.89-1.18-1.37-1.83-.08-.11-.11-.21-.08-.32.03-.11.11-.2.23-.27.67-.37,1.22-.87,1.64-1.5.54-.79.81-1.75.81-2.86,0-.72-.12-1.39-.36-2.01-.12-.3-.26-.59-.43-.85-.17-.26-.37-.51-.59-.73-.43-.42-.96-.76-1.56-1.03-.62-.24-1.3-.35-2.03-.35h-5.85c-.19,0-.36.07-.49.2-.13.13-.2.3-.2.49v12.99c0,.19.07.36.2.49.13.13.3.2.49.2h1.53c.19,0,.35-.07.48-.2.13-.13.19-.3.19-.49v-3.31c0-.14.05-.26.15-.36.1-.1.22-.15.36-.15h1.49c.15,0,.32.04.48.13.17.08.3.19.39.32l1.28,1.8c.22.3.44.59.65.88.21.29.43.58.65.88.11.14.26.26.46.35.19.1.38.15.56.15h1.96c.26,0,.36-.15.41-.28.05-.17.02-.34-.1-.51Zm-3.01-8.61c0,.41-.06.75-.19,1.01-.14.29-.3.53-.49.71-.18.18-.41.33-.69.43-.26.1-.5.15-.72.15h-3.14c-.14,0-.26-.05-.36-.15-.1-.1-.15-.22-.15-.36v-3.66c0-.14.05-.26.15-.36.1-.1.22-.15.36-.15h3.14c.45,0,.82.09,1.1.26.27.17.48.38.63.62.06.13.12.26.17.39.05.13.09.26.11.4.05.25.08.5.08.72Z"></path><path class="cls-6" d="m101.38,25.56c-.03-.08-.06-.15-.08-.22l-4.76-12.8c-.02-.08-.08-.17-.18-.27-.1-.1-.24-.15-.41-.15h-2.29c-.17,0-.31.05-.41.15-.1.1-.16.19-.18.26l-4.74,12.74c-.03.09-.07.19-.11.29-.04.11-.08.23-.11.35,0,.03-.01.07-.01.11,0,.12.05.22.15.28.09.05.2.08.34.08h1.9c.28,0,.48-.14.58-.41.11-.29.24-.63.39-1.02.11-.27.17-.44.32-.84.13-.35.3-.35.54-.35h4.96c.24,0,.41,0,.54.35.15.4.22.57.33.84.16.39.29.73.39,1.02.1.27.3.41.58.41h1.9c.14,0,.25-.03.34-.08.1-.06.15-.16.15-.28,0-.05,0-.08-.01-.11-.03-.13-.07-.25-.11-.36Zm-4.83-4.54c-.05.08-.14.12-.28.12h-2.93c-.14,0-.23-.04-.28-.12-.05-.08-.05-.18,0-.32l1.57-4.2c.05-.12.1-.18.17-.18.06,0,.12.07.17.18l1.58,4.21c.06.13.06.24,0,.32Z"></path></g><g><path class="cls-5" d="m25.76,19.74h0s-.06.07-.09.1c-.02.02-.03.04-.05.06-.01.01-.02.03-.04.04-.03.03-.06.07-.09.1-.05.06-.11.11-.16.17-.04.04-.09.09-.13.13-.03.03-.06.05-.09.08-.07.06-.13.12-.2.18h0s-.07.06-.1.08c-.04.03-.07.06-.11.08-.03.03-.06.05-.1.07-.04.03-.08.06-.12.08-.04.03-.07.05-.11.07-.14.09-.27.17-.42.24-.03.02-.06.03-.09.04-.03.02-.07.03-.1.05-.07.03-.14.06-.21.09-.02,0-.04.02-.06.02-.07.03-.14.05-.22.07-.03,0-.05.02-.08.02-.02,0-.05.01-.07.02-.08.02-.16.04-.24.06-.03,0-.05.01-.08.02-.07.01-.15.03-.22.03-.04,0-.07,0-.11.01-.04,0-.07,0-.11,0-.04,0-.07,0-.11,0-.08,0-.16,0-.24,0-.05,0-.1,0-.14,0-.05,0-.09,0-.14-.01,0,0-.01,0-.02,0,0,0-.02,0-.02,0,0,0-.02,0-.02,0-.01,0-.02,0-.04,0h0s.01-.02.02-.03c.13-.25.26-.5.38-.75.28-.58.53-1.18.76-1.78.67-.27,1.24-.78,1.58-1.44.21.33.43.67.65,1,.24.37.5.73.75,1.09Z"></path><circle class="cls-1" cx="32.2" cy="4.84" r="3.27"></circle><g><path class="cls-1" d="m23.94,14.19s.02.02.03.04c-.02-.03-.04-.05-.07-.08.01.01.02.03.04.04Z"></path><path class="cls-1" d="m40.38,8.27c-.23,1.25-.55,2.47-.93,3.68-.75,2.4-1.73,4.72-2.71,7.04-.75,1.75-1.5,3.52-2.49,5.14-.36.58-.76,1.16-1.3,1.57-.17.13-.34.23-.52.31.33-1.11.55-2.26.76-3.3.09-.45.18-.9.25-1.36.08-.44.14-.88.21-1.32.05-.37.11-.73.16-1.1.04-.32.07-.65.1-.98.03-.26.06-.52.09-.78.02-.13.02-.27.03-.4.03-.36.06-.72.08-1.08.03-.41.03-.82.02-1.22-.02-.74-.11-1.48-.44-2.16-.23-.48-.6-.84-1.15-.93-.49-.08-.95.06-1.38.32-.37.22-.69.5-.98.81-.94.86-1.6,2.02-2.16,3.17-.66,1.36-1.24,2.77-2.18,3.95-.03.04-.06.07-.09.11h0s.02.02.02.03c-.05.05-.1.1-.15.15,0,0,0-.02-.01-.03h0c-.12-.23-.23-.46-.35-.69-.09-.19-.18-.38-.27-.56-.16-.35-.32-.71-.46-1.07-.02-.06-.05-.12-.07-.17.07-.18.13-.36.17-.56.19-.9-.04-1.78-.55-2.46.29-2.18.52-4.36.17-6.56-.17-1.06-.44-2.08-1.01-3.01-.04-.06-.08-.12-.12-.18-.45-.67-1.03-1.16-1.75-1.48,0-.07,0-.14.01-.21.06-.87.1-1.71.73-2.35.57-.57,1.43-.83,2.13-.32,1.06.77,1.74,2.01,2.26,3.19.75,1.71,1.22,3.6,2.49,5.03,1.15,1.29,2.99,2,4.59,1.04,1.12-.67,1.71-1.84,2.45-2.85.47-.64,1.04-1.24,1.78-1.54.74-.3,1.67-.22,2.21.36.72.76.5,1.85.33,2.77Z"></path><path class="cls-4" d="m22.78,19.09c-.22.6-.47,1.2-.76,1.78-.12.25-.25.5-.38.75,0,.01-.01.02-.02.03h0c-1.75-.24-3.16-1.67-4.81-2.39-.55-.24-1.25-.38-1.69.02-.3.28-.37.73-.38,1.14-.06,2.06.93,3.89,2.11,5.51.13.18.27.36.41.53h0s-.02.01-.03.02c-2.36,1.16-5.49.25-7.73-.76-2.84-1.28-5.22-3.36-7.14-5.78C1.05,18.29.08,16.46,0,14.28c-.03-.85.08-1.68.68-2.36,1.3-1.51,2.73-1.81,4.59-.98,1.24.55,2.34,1.39,3.61,1.88,1.21.7,2.51,1.01,3.9.84,2.16-.27,3.3-1.69,3.99-3.58.15-.41.26-.85.38-1.27.19-.74.39-1.48.59-2.22.24-.88.43-1.78.85-2.6.56-1.08,1.33-1.36,2.46-.96.11.04.22.08.33.13-.1,1.97.26,3.93.69,5.84.05.24.11.47.16.71.06.27.12.53.18.8.12.49.23.98.35,1.47.09.34.17.68.26,1.02.05.19.1.38.15.56,0,0,0,0,0,0-.16-.09-.32-.18-.5-.24-.03,0-.05-.02-.08-.03-.04-.01-.08-.03-.12-.04-.04-.01-.08-.02-.12-.03-.05-.01-.09-.02-.14-.03-.19-.04-.38-.06-.57-.06-1.46-.03-2.78.98-3.09,2.46-.34,1.67.73,3.31,2.4,3.65.62.13,1.24.06,1.78-.16Z"></path><path class="cls-2" d="m24.1,14.39s-.04-.05-.06-.08c0,0,0,0,0-.01-.02-.02-.04-.04-.05-.07-.02-.03-.04-.05-.07-.08-.03-.03-.06-.07-.09-.1,0,0-.01-.01-.02-.02,0,0,0,0,0,0t0,0s-.06-.06-.09-.09c-.07-.06-.15-.13-.22-.18-.03-.02-.06-.04-.09-.06-.06-.04-.12-.08-.18-.12,0,0,0,0,0,0-.05-.19-.1-.38-.15-.56-.09-.34-.18-.68-.26-1.02-.12-.49-.24-.98-.35-1.47-.06-.27-.12-.53-.18-.8-.05-.24-.11-.47-.16-.71-.43-1.91-.79-3.88-.69-5.84.73.32,1.31.82,1.75,1.48.04.06.08.12.12.18.56.93.84,1.95,1.01,3.01.36,2.2.12,4.38-.17,6.56Z"></path></g><path class="cls-4" d="m13.74,10.1c1.35-1.06,1.59-3.02.53-4.38s-3.02-1.59-4.38-.53c-1.35,1.06-1.59,3.02-.53,4.38s3.02,1.59,4.38.53Z"></path><path class="cls-8" d="m24.65,16.85c-.04.2-.1.38-.17.56-.03.08-.07.16-.11.24-.34.66-.91,1.17-1.58,1.44-.55.22-1.16.29-1.78.16-1.67-.34-2.75-1.98-2.4-3.65.31-1.48,1.63-2.49,3.09-2.46.19,0,.38.02.57.06.05.01.1.02.14.03.04.01.08.02.12.03.04.01.08.02.12.04.03,0,.05.02.08.03.18.07.34.15.5.24.06.04.12.08.18.12.03.02.06.04.09.06.08.06.15.12.22.18.03.03.06.06.09.09t0,0s0,0,0,0c0,0,.01.01.02.02.03.03.06.06.09.1.02.03.04.05.07.08.02.02.04.04.05.07,0,0,0,0,0,.01.02.03.04.05.06.08.51.68.73,1.57.55,2.46Z"></path><path class="cls-7" d="m23.2,13.57c.22.13.41.28.59.46-.03-.03-.06-.06-.09-.09-.07-.06-.15-.13-.22-.18-.03-.02-.06-.04-.09-.06-.06-.04-.12-.08-.18-.12-.16-.09-.32-.18-.5-.24.18.06.34.14.5.24Z"></path><path class="cls-7" d="m23.98,14.23s-.04-.05-.07-.08c.01.01.02.03.04.04.01.01.02.02.03.04Z"></path><path class="cls-7" d="m25.79,19.78c-.05.05-.1.1-.15.15-.1.1-.2.19-.3.27.05-.05.1-.11.16-.16.03-.03.06-.07.09-.1.01-.01.03-.03.04-.04h0s.03-.04.05-.06c.03-.03.06-.07.09-.1,0,.01.02.02.02.03Z"></path><path class="cls-7" d="m21.69,21.66s-.02,0-.02,0c-.01,0-.02,0-.04,0h0s.02,0,.04,0c0,0,.02,0,.02,0Z"></path><path class="cls-7" d="m22.25,21.69c-.08,0-.16,0-.24,0-.05,0-.1,0-.14,0,.05,0,.09,0,.14,0,.08,0,.16,0,.24,0Z"></path><path class="cls-7" d="m22.8,21.63c-.07.01-.15.03-.22.03.07,0,.15-.02.22-.03Z"></path><path class="cls-7" d="m23.12,21.55c-.08.02-.16.04-.24.06.08-.02.16-.04.24-.06Z"></path><path class="cls-8" d="m34.11,15.7c-.02.36-.05.72-.08,1.08-.01.13-.01.27-.03.4-.03.26-.06.52-.09.78-.04.33-.06.65-.1.98-.05.37-.1.73-.16,1.1-.07.44-.13.88-.21,1.32-.08.45-.16.9-.25,1.36-.21,1.04-.43,2.18-.76,3.3-.6,2.04-1.57,3.98-3.46,4.97-.09.05-.19.09-.28.14-1.07.48-2.18.56-3.26.38-1.24-.2-2.46-.73-3.57-1.34-1.7-.95-3.32-2.14-4.57-3.66,0,0-.02-.02-.02-.03h0c-.14-.17-.28-.35-.41-.53-1.17-1.62-2.16-3.45-2.11-5.51.01-.41.08-.86.38-1.14.44-.4,1.14-.26,1.69-.02,1.65.72,3.06,2.15,4.81,2.39.01,0,.02,0,.04,0,0,0,.02,0,.02,0,0,0,.02,0,.02,0,0,0,.01,0,.02,0,.05,0,.09,0,.14.01.05,0,.09,0,.14,0,.08,0,.16,0,.24,0,.04,0,.07,0,.11,0,.04,0,.07,0,.11,0,.04,0,.07,0,.11-.01.07,0,.15-.02.22-.03.03,0,.05-.01.08-.02.08-.02.16-.04.24-.06.02,0,.05-.01.07-.02.03,0,.05-.01.08-.02.07-.02.15-.05.22-.07.02,0,.04-.02.06-.02.07-.03.14-.06.21-.09.03-.01.07-.03.1-.05.03-.01.06-.03.09-.04.14-.07.28-.15.42-.24.04-.02.07-.05.11-.07.04-.03.08-.06.12-.08.03-.02.07-.05.1-.07.04-.03.07-.05.11-.08.04-.03.07-.06.1-.08h0c.07-.06.14-.12.2-.18.03-.03.06-.05.09-.08.05-.04.09-.08.13-.13,0,0,0,0,0,0,.1-.09.2-.18.3-.27.05-.05.1-.1.15-.15,0-.01-.02-.02-.02-.03h0s.06-.08.09-.11c.94-1.18,1.52-2.6,2.18-3.95.56-1.16,1.22-2.31,2.16-3.17.28-.31.6-.59.98-.81.43-.25.89-.39,1.38-.32.55.08.92.45,1.15.93.33.68.41,1.42.44,2.16.01.41,0,.82-.02,1.22Z"></path><path class="cls-3" d="m21.66,21.66h0s-.02,0-.04,0c-1.75-.24-3.16-1.67-4.81-2.39-.55-.24-1.25-.38-1.69.02-.3.28-.37.73-.38,1.14-.06,2.06.93,3.89,2.11,5.51.13.18.27.36.41.53h0s.01.02.02.03c0,0,0,0,0,0,0,0-.01,0-.02,0-.01,0-.02,0-.03-.01,0,0,0,0,0,0-.16-.19-.29-.36-.41-.53-1.02-1.4-2.17-3.3-2.11-5.53,0-.35.06-.86.39-1.17.51-.47,1.3-.22,1.73-.03.63.28,1.23.66,1.81,1.02.94.6,1.91,1.21,2.99,1.36,0,0,0,0,.01,0,0,0,.01,0,.01.01,0,0,0,.01,0,.02Z"></path></g></svg>