<svg preserveAspectRatio="none" width="100%" height="100%" overflow="visible" style="display: block;" viewBox="0 0 40 40" fill="none" xmlns="http://www.w3.org/2000/svg">
<g id="handshake_24dp_E3E3E3_FILL0_wght400_GRAD0_opsz24 1">
<rect width="40" height="40" rx="20" fill="var(--fill-0, #3B82F6)"/>
<path id="Vector" d="M14 23V22H11.5V20H16.5V18H12.5C12.2167 18 11.9792 17.9042 11.7875 17.7125C11.5958 17.5208 11.5 17.2833 11.5 17V13C11.5 12.7167 11.5958 12.4792 11.7875 12.2875C11.9792 12.0958 12.2167 12 12.5 12H14V11H16V12H18.5V14H13.5V16H17.5C17.7833 16 18.0208 16.0958 18.2125 16.2875C18.4042 16.4792 18.5 16.7167 18.5 17V21C18.5 21.2833 18.4042 21.5208 18.2125 21.7125C18.0208 21.9042 17.7833 22 17.5 22H16V23H14ZM21.45 29L17.2 24.75L18.6 23.35L21.45 26.2L27.1 20.55L28.5 21.95L21.45 29Z" fill="var(--fill-0, #E3E3E3)"/>
</g>
</svg>
