<svg width="40" height="40" viewBox="0 0 40 40" fill="none" xmlns="http://www.w3.org/2000/svg">
<rect width="40" height="40" rx="20" fill="#3B82F6"/>
<path d="M19.88 28C19.9467 28 20.0133 27.9833 20.08 27.95C20.1467 27.9167 20.1967 27.8833 20.23 27.85L28.43 19.65C28.63 19.45 28.7758 19.225 28.8675 18.975C28.9592 18.725 29.005 18.475 29.005 18.225C29.005 17.9583 28.9592 17.7042 28.8675 17.4625C28.7758 17.2208 28.63 17.0083 28.43 16.825L24.18 12.575C23.9967 12.375 23.7842 12.2292 23.5425 12.1375C23.3008 12.0458 23.0467 12 22.78 12C22.53 12 22.28 12.0458 22.03 12.1375C21.78 12.2292 21.555 12.375 21.355 12.575L21.08 12.85L22.93 14.725C23.18 14.9583 23.3633 15.225 23.48 15.525C23.5967 15.825 23.655 16.1417 23.655 16.475C23.655 17.175 23.4175 17.7625 22.9425 18.2375C22.4675 18.7125 21.88 18.95 21.18 18.95C20.8467 18.95 20.5258 18.8917 20.2175 18.775C19.9092 18.6583 19.6383 18.4833 19.405 18.25L17.53 16.4L13.155 20.775C13.105 20.825 13.0675 20.8792 13.0425 20.9375C13.0175 20.9958 13.005 21.0583 13.005 21.125C13.005 21.2583 13.055 21.3792 13.155 21.4875C13.255 21.5958 13.3717 21.65 13.505 21.65C13.5717 21.65 13.6383 21.6333 13.705 21.6C13.7717 21.5667 13.8217 21.5333 13.855 21.5L17.255 18.1L18.655 19.5L15.28 22.9C15.23 22.95 15.1925 23.0042 15.1675 23.0625C15.1425 23.1208 15.13 23.1833 15.13 23.25C15.13 23.3833 15.18 23.5 15.28 23.6C15.38 23.7 15.4967 23.75 15.63 23.75C15.6967 23.75 15.7633 23.7333 15.83 23.7C15.8967 23.6667 15.9467 23.6333 15.98 23.6L19.38 20.225L20.78 21.625L17.405 25.025C17.355 25.0583 17.3175 25.1083 17.2925 25.175C17.2675 25.2417 17.255 25.3083 17.255 25.375C17.255 25.5083 17.305 25.625 17.405 25.725C17.505 25.825 17.6217 25.875 17.755 25.875C17.8217 25.875 17.8842 25.8625 17.9425 25.8375C18.0008 25.8125 18.055 25.775 18.105 25.725L21.505 22.35L22.905 23.75L19.505 27.15C19.455 27.2 19.4175 27.2542 19.3925 27.3125C19.3675 27.3708 19.355 27.4333 19.355 27.5C19.355 27.6333 19.4092 27.75 19.5175 27.85C19.6258 27.95 19.7467 28 19.88 28ZM19.855 30C19.2383 30 18.6925 29.7958 18.2175 29.3875C17.7425 28.9792 17.4633 28.4667 17.38 27.85C16.8133 27.7667 16.3383 27.5333 15.955 27.15C15.5717 26.7667 15.3383 26.2917 15.255 25.725C14.6883 25.6417 14.2175 25.4042 13.8425 25.0125C13.4675 24.6208 13.2383 24.15 13.155 23.6C12.5217 23.5167 12.005 23.2417 11.605 22.775C11.205 22.3083 11.005 21.7583 11.005 21.125C11.005 20.7917 11.0675 20.4708 11.1925 20.1625C11.3175 19.8542 11.4967 19.5833 11.73 19.35L17.53 13.575L20.805 16.85C20.8383 16.9 20.8883 16.9375 20.955 16.9625C21.0217 16.9875 21.0883 17 21.155 17C21.305 17 21.43 16.9542 21.53 16.8625C21.63 16.7708 21.68 16.65 21.68 16.5C21.68 16.4333 21.6675 16.3667 21.6425 16.3C21.6175 16.2333 21.58 16.1833 21.53 16.15L17.955 12.575C17.7717 12.375 17.5592 12.2292 17.3175 12.1375C17.0758 12.0458 16.8217 12 16.555 12C16.305 12 16.055 12.0458 15.805 12.1375C15.555 12.2292 15.33 12.375 15.13 12.575L11.605 16.125C11.455 16.275 11.33 16.45 11.23 16.65C11.13 16.85 11.0633 17.05 11.03 17.25C10.9967 17.45 10.9967 17.6542 11.03 17.8625C11.0633 18.0708 11.13 18.2667 11.23 18.45L9.78 19.9C9.49666 19.5167 9.28833 19.0958 9.155 18.6375C9.02166 18.1792 8.97166 17.7167 9.005 17.25C9.03833 16.7833 9.155 16.3292 9.355 15.8875C9.555 15.4458 9.83 15.05 10.18 14.7L13.705 11.175C14.105 10.7917 14.5508 10.5 15.0425 10.3C15.5342 10.1 16.0383 10 16.555 10C17.0717 10 17.5758 10.1 18.0675 10.3C18.5592 10.5 18.9967 10.7917 19.38 11.175L19.655 11.45L19.93 11.175C20.33 10.7917 20.7758 10.5 21.2675 10.3C21.7592 10.1 22.2633 10 22.78 10C23.2967 10 23.8008 10.1 24.2925 10.3C24.7842 10.5 25.2217 10.7917 25.605 11.175L29.83 15.4C30.2133 15.7833 30.505 16.225 30.705 16.725C30.905 17.225 31.005 17.7333 31.005 18.25C31.005 18.7667 30.905 19.2708 30.705 19.7625C30.505 20.2542 30.2133 20.6917 29.83 21.075L21.63 29.25C21.3967 29.4833 21.1258 29.6667 20.8175 29.8C20.5092 29.9333 20.1883 30 19.855 30Z" fill="#D1D5DB"/>
</svg>
