<svg width="610" height="529" viewBox="0 0 610 529" fill="none" xmlns="http://www.w3.org/2000/svg">
<path opacity="0.15" d="M180.592 527.877C134.169 527.877 92.5469 507.751 55.7363 467.574L54.0234 465.715C18.3378 426.534 0.5 378.439 0.5 321.462C0.500072 253.382 23.3334 189.736 68.9717 130.534C113.944 71.993 179.342 28.7882 265.131 0.901001L265.786 0.68811V44.4948L265.516 44.6344C206.365 75.1989 163.92 107.438 138.133 141.335L138.132 141.336C111.662 175.915 98.4385 213.188 98.4385 253.164C98.4385 276.934 101.845 293.444 108.55 302.822V302.823C115.292 311.573 122.64 315.865 130.592 315.865C139.348 315.865 151.188 313.17 166.136 307.74L166.142 307.738C181.82 302.29 195.483 299.555 207.122 299.555C235.156 299.555 259.77 310.149 280.945 331.302L280.951 331.307L280.592 331.656L280.951 331.308C301.449 352.468 311.704 377.737 311.704 407.089C311.704 439.856 299.055 468.189 273.792 492.062C248.523 515.941 217.445 527.877 180.592 527.877Z" stroke="#D1D5DB"/>
<path opacity="0.1" d="M477.592 527.877C431.169 527.877 389.547 507.751 352.736 467.574L351.023 465.715C315.338 426.534 297.5 378.439 297.5 321.462C297.5 253.382 320.333 189.736 365.972 130.534C410.944 71.993 476.342 28.7882 562.131 0.901001L562.786 0.68811V44.4948L562.516 44.6344C503.365 75.1989 460.92 107.438 435.133 141.335L435.132 141.336C408.662 175.915 395.438 213.188 395.438 253.164C395.439 276.934 398.845 293.444 405.55 302.822V302.823C412.292 311.573 419.64 315.865 427.592 315.865C436.348 315.865 448.188 313.17 463.136 307.74L463.142 307.738C478.82 302.29 492.483 299.555 504.122 299.555C532.156 299.555 556.77 310.149 577.945 331.302L577.951 331.307L577.592 331.656L577.951 331.308C598.449 352.468 608.704 377.737 608.704 407.089C608.704 439.856 596.055 468.189 570.792 492.062C545.523 515.941 514.445 527.877 477.592 527.877Z" stroke="#D1D5DB"/>
</svg>
